<?xml version="1.0" encoding="utf-8" standalone="yes"?>
<!DOCTYPE svg PUBLIC "-//W3C//DTD SVG 1.1//EN" "http://www.w3.org/Graphics/SVG/1.1/DTD/svg11.dtd">
<svg width="828" height="386" viewBox="0 0 828 386" style="fill:none;stroke:none;fill-rule:evenodd;clip-rule:evenodd;stroke-linecap:round;stroke-linejoin:round;stroke-miterlimit:1.5;" version="1.1" xmlns="http://www.w3.org/2000/svg" xmlns:xlink="http://www.w3.org/1999/xlink"><style class="text-font-style fontImports" data-font-family="Roboto">@import url('https://fonts.googleapis.com/css2?family=Roboto:wght@400;700&amp;display=block');</style><g id="items" style="isolation: isolate"><g id="blend" style="mix-blend-mode: normal"><g id="g-root-1.g-1_fr_143m9mm1nz4k5j-fill" data-item-order="999731880" transform="translate(29.769241333007812, 230.63134765625)"><g id="1.g-1_fr_143m9mm1nz4k5j-fill" stroke="none" fill="#5b48a7"><g><path d="M 166 10L 22 10L 22 58L 166 58L 166 10ZM 193.5 34L 169.5 10L 166 10L 166 58L 169.5 58L 193.5 34ZM 10 34L 10 58L 22 58L 22 10L 10 10L 10 34Z"></path></g></g></g><g id="g-root-2.g-2_fr_mcyq7y1nz4jcx-fill" data-item-order="999731908" transform="translate(201.76925659179688, 230.63134765625)"><g id="2.g-2_fr_mcyq7y1nz4jcx-fill" stroke="none" fill="#7b63de"><g><path d="M 188 10L 44 10L 44 58L 188 58L 188 10ZM 215.5 34L 191.5 10L 188 10L 188 58L 191.5 58L 215.5 34ZM 34 34L 10 58L 44 58L 44 10L 10 10L 34 34Z"></path></g></g></g><g id="g-root-3.g-3_fr_924oxq1nz4hs3-fill" data-item-order="999731936" transform="translate(395.7692565917969, 230.63134765625)"><g id="3.g-3_fr_924oxq1nz4hs3-fill" stroke="none" fill="#8568fa"><g><path d="M 188 10L 44 10L 44 58L 188 58L 188 10ZM 215.5 34L 191.5 10L 188 10L 188 58L 191.5 58L 215.5 34ZM 34 34L 10 58L 44 58L 44 10L 10 10L 34 34Z"></path></g></g></g><g id="g-root-4.g-4_fr_1lw58am1nz4jyl-fill" data-item-order="999731964" transform="translate(589.769287109375, 230.63134765625)"><g id="4.g-4_fr_1lw58am1nz4jyl-fill" stroke="none" fill="#b7a5ff"><g><path d="M 188 10L 44 10L 44 58L 188 58L 188 10ZM 215.5 34L 191.5 10L 188 10L 188 58L 191.5 58L 215.5 34ZM 34 34L 10 58L 44 58L 44 10L 10 10L 34 34Z"></path></g></g></g><g id="g-root-supp_8d3y61nz4hl5-fill" data-item-order="1000000000" transform="translate(89.76925659179688, 170.63134765625)"></g><g id="g-root-bowl_m7z3um1nza6fa-fill" data-item-order="1000000000" transform="translate(283.7692565917969, 170.63134765625)"></g><g id="g-root-anal_dg2y4e1nzcwsi-fill" data-item-order="1000000000" transform="translate(477.7692565917969, 170.63134765625)"></g><g id="g-root-6_4pftq61nz1qmd-fill" data-item-order="1000000000" transform="translate(671.769287109375, 170.63134765625)"></g><g id="g-root-tx__dj758e1nz4j60-fill" data-item-order="1000000000" transform="translate(47.769256591796875, 242.63134765625)"><g id="tx__dj758e1nz4j60-fill" stroke="none" fill="#ffffff"><g><text style="font: bold 20px Roboto, sans-serif; white-space: pre;" font-weight="bold" font-size="20px" font-family="Roboto, sans-serif"><tspan x="16" y="34" dominant-baseline="ideographic">お問い合わせ</tspan></text></g></g></g><g id="g-root-tx__1ha35mm1nza5n1-fill" data-item-order="1000000000" transform="translate(265.7692565917969, 242.63134765625)"><g id="tx__1ha35mm1nza5n1-fill" stroke="none" fill="#ffffff"><g><text style="font: bold 20px Roboto, sans-serif; white-space: pre;" font-weight="bold" font-size="20px" font-family="Roboto, sans-serif"><tspan x="12" y="34" dominant-baseline="ideographic">無料相談</tspan></text></g></g></g><g id="g-root-tx__1hd7j261nzcydc-fill" data-item-order="1000000000" transform="translate(447.7692565917969, 242.63134765625)"><g id="tx__1hd7j261nzcydc-fill" stroke="none" fill="#ffffff"><g><text style="font: bold 20px Roboto, sans-serif; white-space: pre;" font-weight="bold" font-size="20px" font-family="Roboto, sans-serif"><tspan x="14" y="34" dominant-baseline="ideographic">プラン提示</tspan></text></g></g></g><g id="g-root-tx__i0wc3i1nz1p1g-fill" data-item-order="1000000000" transform="translate(653.769287109375, 242.63134765625)"><g id="tx__i0wc3i1nz1p1g-fill" stroke="none" fill="#ffffff"><g><text style="font: bold 20px Roboto, sans-serif; white-space: pre;" font-weight="bold" font-size="20px" font-family="Roboto, sans-serif"><tspan x="12" y="34" dominant-baseline="ideographic">制作開始</tspan></text></g></g></g><g id="g-root-1.g-1_fr_143m9mm1nz4k5j-stroke" data-item-order="999731880" transform="translate(29.769241333007812, 230.63134765625)"><g id="1.g-1_fr_143m9mm1nz4k5j-stroke" fill="none" stroke-linecap="round" stroke-linejoin="round" stroke-miterlimit="4" stroke="#ffffff" stroke-width="1"><g><path d="M 22 10L 166 10M 165.5 58L 169 58L 193 34L 169 10L 165.5 10M 166 58L 22 58M 22 10L 10 10L 10 58L 22 58"></path></g></g></g><g id="g-root-2.g-2_fr_mcyq7y1nz4jcx-stroke" data-item-order="999731908" transform="translate(201.76925659179688, 230.63134765625)"><g id="2.g-2_fr_mcyq7y1nz4jcx-stroke" fill="none" stroke-linecap="round" stroke-linejoin="round" stroke-miterlimit="4" stroke="#ffffff" stroke-width="1"><g><path d="M 44 10L 188 10M 187.5 58L 191 58L 215 34L 191 10L 187.5 10M 188 58L 44 58M 44 10L 10 10L 34 34L 10 58L 44 58"></path></g></g></g><g id="g-root-3.g-3_fr_924oxq1nz4hs3-stroke" data-item-order="999731936" transform="translate(395.7692565917969, 230.63134765625)"><g id="3.g-3_fr_924oxq1nz4hs3-stroke" fill="none" stroke-linecap="round" stroke-linejoin="round" stroke-miterlimit="4" stroke="#ffffff" stroke-width="1"><g><path d="M 44 10L 188 10M 187.5 58L 191 58L 215 34L 191 10L 187.5 10M 188 58L 44 58M 44 10L 10 10L 34 34L 10 58L 44 58"></path></g></g></g><g id="g-root-4.g-4_fr_1lw58am1nz4jyl-stroke" data-item-order="999731964" transform="translate(589.769287109375, 230.63134765625)"><g id="4.g-4_fr_1lw58am1nz4jyl-stroke" fill="none" stroke-linecap="round" stroke-linejoin="round" stroke-miterlimit="4" stroke="#ffffff" stroke-width="1"><g><path d="M 44 10L 188 10M 187.5 58L 191 58L 215 34L 191 10L 187.5 10M 188 58L 44 58M 44 10L 10 10L 34 34L 10 58L 44 58"></path></g></g></g><g id="g-root-supp_8d3y61nz4hl5-stroke" data-item-order="1000000000" transform="translate(89.76925659179688, 170.63134765625)"><g id="supp_8d3y61nz4hl5-stroke" fill="none" stroke-linecap="round" stroke-linejoin="round" stroke-miterlimit="4" stroke="#484848" stroke-width="2"><g><path d="M 43.720001 29.114C 43.719509 31.79845 45.89555 33.974888 48.580002 33.974888C 51.26445 33.974888 53.440491 31.79845 53.439999 29.114C 53.440491 26.42955 51.26445 24.253113 48.580002 24.253113C 45.89555 24.253113 43.719509 26.42955 43.720001 29.114M 57 43.695999C 56.396698 39.510277 52.809975 36.403454 48.580997 36.403454C 44.352024 36.403454 40.765297 39.510277 40.161999 43.695999ZM 11 27.818001L 20.6 35.587997C 20.91452 35.850201 21.371479 35.850201 21.685999 35.587997L 31.285999 27.818001M 29.452 26.799999L 30.375999 26.799999C 30.912743 26.831184 31.324142 27.288988 31.298 27.826L 31.298 40.139999C 31.324142 40.677013 30.912743 41.134819 30.375999 41.166L 11.922 41.166C 11.381969 41.134857 10.969296 40.672058 11 40.132L 11 27.818001C 10.978368 27.284039 11.388512 26.83119 11.922 26.799999L 29.452 26.799999ZM 46.425999 20.048C 43.998642 15.496334 39.414902 12.499486 34.271805 12.101587C 29.128712 11.70369 24.138571 13.95985 21.040001 18.084M 40.134003 19.237999L 46.428001 20.048M 47.316002 14.719999L 46.428001 20.048M 20.674 47.952C 23.101362 52.503666 27.685101 55.500515 32.828194 55.898415C 37.971291 56.29631 42.96143 54.04015 46.060001 49.916M 26.968 48.762001L 20.674 47.952M 19.785999 53.279999L 20.674 47.952"></path></g></g></g><g id="g-root-bowl_m7z3um1nza6fa-stroke" data-item-order="1000000000" transform="translate(283.7692565917969, 170.63134765625)"><g id="bowl_m7z3um1nza6fa-stroke" fill="none" stroke-linecap="round" stroke-linejoin="round" stroke-miterlimit="4" stroke="#484848" stroke-width="2"><g><path d="M 57 16.024C 57 23.742733 50.742733 30 43.024002 30L 42.976002 30C 35.257271 30 29 23.742733 29 16.024M 29 16C 29.000002 17.656855 35.268013 19 43 19C 50.731987 19 57 17.656855 57 16C 57 14.343145 50.731987 13 43 13C 35.268013 13 29.000002 14.343145 29.000002 16M 12 37L 18 37C 18 37 19 37 19 38L 19 52C 19 52 19 53 18 53L 12 53C 12 53 11 53 11 52L 11 38C 11 38 11 37 12 37M 19 50.125999C 28 53.125999 31.85 55 35.200001 55C 40 55 43.27 51.986 57 45.125999C 55.618729 43.265095 53.221558 42.466038 51 43.125999L 42.368 45.860001M 19 39L 25 39C 29.705999 39 33 43 34 43L 41 43C 43 43 43 47 41 47L 30 47"></path></g></g></g><g id="g-root-anal_dg2y4e1nzcwsi-stroke" data-item-order="1000000000" transform="translate(477.7692565917969, 170.63134765625)"><g id="anal_dg2y4e1nzcwsi-stroke" fill="none" stroke-linecap="round" stroke-linejoin="round" stroke-miterlimit="4" stroke="#484848" stroke-width="2"><g><path d="M 20 34L 20 40M 24 57L 25 47L 29 47L 29 39C 29 34.029438 24.970562 30 20 30C 15.029438 30 11 34.029438 11 39L 11 47L 15 47L 16 57M 14.860001 18C 16.740438 19.91843 19.31366 20.999617 22 21C 23.37554 21.004684 24.737255 20.725533 26 20.18M 14.04 21C 14.039658 24.313951 16.717094 27.000622 20.02 27.000622C 23.322905 27.000622 26.000341 24.313951 26 21C 26.000341 17.686049 23.322905 14.999378 20.02 14.999378C 16.717094 14.999378 14.039658 17.686049 14.04 21M 26 11L 55 11C 56.104568 11 57 11.895431 57 13L 57 33C 57 34.104568 56.104568 35 55 35L 34 35M 39 35L 39 47M 35 47L 43 47M 32 25L 38 19L 41 22L 48 15M 43 15L 48 15L 48 20M 45 27L 49 27M 45 31L 51 31"></path></g></g></g><g id="g-root-6_4pftq61nz1qmd-stroke" data-item-order="1000000000" transform="translate(671.769287109375, 170.63134765625)"><g id="6_4pftq61nz1qmd-stroke" fill="none" stroke-linecap="round" stroke-linejoin="round" stroke-miterlimit="4" stroke="#484848" stroke-width="2"><g><path d="M 10 10M 47.928001 13.08L 56.411999 21.566C 57.192764 22.347 57.192764 23.612999 56.411999 24.394001L 30.959999 49.849998L 30.959999 49.849998L 19.646 38.535999L 19.646 38.535999L 45.099998 13.08C 45.881001 12.299236 47.146999 12.299236 47.928001 13.08ZM 21.057999 54.091999L 15.402 48.436001L 19.644001 38.535999L 30.958 49.849998L 21.057999 54.091999ZM 16.816 49.849998L 11 55.493999L 16.816 55.506001L 19.644001 52.678001M 42.273998 15.908L 53.585999 27.222L 49.346001 31.462L 38.029999 20.15ZM 42.271999 15.908L 40.858002 14.493999C 40.077 13.713236 38.810997 13.713236 38.029999 14.493999L 30.129999 22.4C 29.755014 22.775099 29.246389 22.985886 28.716 22.986L 26.716 22.986"></path></g></g></g><g id="g-root-tx__dj758e1nz4j60-stroke" data-item-order="1000000000" transform="translate(47.769256591796875, 242.63134765625)"></g><g id="g-root-tx__1ha35mm1nza5n1-stroke" data-item-order="1000000000" transform="translate(265.7692565917969, 242.63134765625)"></g><g id="g-root-tx__1hd7j261nzcydc-stroke" data-item-order="1000000000" transform="translate(447.7692565917969, 242.63134765625)"></g><g id="g-root-tx__i0wc3i1nz1p1g-stroke" data-item-order="1000000000" transform="translate(653.769287109375, 242.63134765625)"></g></g></g></svg>